<mxfile host="65bd71144e">
    <diagram id="NKUWGzSg4pVxSFcMlATZ" name="Page-1">
        <mxGraphModel dx="1252" dy="520" grid="1" gridSize="10" guides="1" tooltips="1" connect="1" arrows="1" fold="1" page="1" pageScale="1" pageWidth="827" pageHeight="1169" math="0" shadow="0">
            <root>
                <mxCell id="0"/>
                <mxCell id="1" parent="0"/>
                <mxCell id="5xW48g5ljJwNTgrKDnSM-1" value="" style="rounded=0;whiteSpace=wrap;html=1;fillColor=#dae8fc;strokeColor=#6c8ebf;" parent="1" vertex="1">
                    <mxGeometry x="30" y="50" width="340" height="390" as="geometry"/>
                </mxCell>
                <mxCell id="5xW48g5ljJwNTgrKDnSM-3" value="AWS" style="text;html=1;strokeColor=#6c8ebf;fillColor=#dae8fc;align=center;verticalAlign=middle;whiteSpace=wrap;rounded=0;" parent="1" vertex="1">
                    <mxGeometry x="50" y="60" width="60" height="30" as="geometry"/>
                </mxCell>
                <mxCell id="5xW48g5ljJwNTgrKDnSM-4" value="" style="rounded=0;whiteSpace=wrap;html=1;fillColor=#d5e8d4;strokeColor=#82b366;" parent="1" vertex="1">
                    <mxGeometry x="80" y="120" width="230" height="270" as="geometry"/>
                </mxCell>
                <mxCell id="5xW48g5ljJwNTgrKDnSM-2" value="Ubuntu 20.04&lt;br&gt;&lt;span style=&quot;color: rgb(22 , 25 , 31) ; font-family: &amp;#34;amazon ember&amp;#34; , &amp;#34;helvetica neue&amp;#34; , &amp;#34;roboto&amp;#34; , &amp;#34;arial&amp;#34; , sans-serif ; font-size: 14px ; text-align: left ; background-color: rgb(241 , 250 , 255)&quot;&gt;18.192.104.109&lt;/span&gt;" style="outlineConnect=0;dashed=0;verticalLabelPosition=bottom;verticalAlign=top;align=center;html=1;shape=mxgraph.aws3.ec2;fillColor=#F58534;gradientColor=none;" parent="1" vertex="1">
                    <mxGeometry x="170" y="208.5" width="76.5" height="93" as="geometry"/>
                </mxCell>
                <mxCell id="5xW48g5ljJwNTgrKDnSM-5" value="VPC (Rede)" style="text;html=1;strokeColor=#82b366;fillColor=#d5e8d4;align=center;verticalAlign=middle;whiteSpace=wrap;rounded=0;" parent="1" vertex="1">
                    <mxGeometry x="100" y="130" width="100" height="30" as="geometry"/>
                </mxCell>
                <mxCell id="5xW48g5ljJwNTgrKDnSM-6" value="" style="rounded=0;whiteSpace=wrap;html=1;strokeColor=default;" parent="1" vertex="1">
                    <mxGeometry x="-317" y="310" width="230" height="150" as="geometry"/>
                </mxCell>
                <mxCell id="5xW48g5ljJwNTgrKDnSM-7" value="" style="rounded=0;whiteSpace=wrap;html=1;strokeColor=default;" parent="1" vertex="1">
                    <mxGeometry x="-317" y="120" width="230" height="150" as="geometry"/>
                </mxCell>
                <mxCell id="5xW48g5ljJwNTgrKDnSM-8" value="J" style="points=[];aspect=fixed;html=1;align=center;shadow=0;dashed=0;image;image=img/lib/allied_telesis/computer_and_terminals/Personal_Computer.svg;strokeColor=default;" parent="1" vertex="1">
                    <mxGeometry x="-231.44" y="161.1" width="58.88" height="79.8" as="geometry"/>
                </mxCell>
                <mxCell id="5xW48g5ljJwNTgrKDnSM-9" value="G" style="points=[];aspect=fixed;html=1;align=center;shadow=0;dashed=0;image;image=img/lib/allied_telesis/computer_and_terminals/Personal_Computer.svg;strokeColor=default;" parent="1" vertex="1">
                    <mxGeometry x="-231.44" y="348.1" width="58.88" height="79.8" as="geometry"/>
                </mxCell>
                <mxCell id="5xW48g5ljJwNTgrKDnSM-10" value="&lt;span style=&quot;font-size: 12px&quot;&gt;dig +short myip.opendns.com @resolver1.opendns.com&lt;br&gt;ou&amp;nbsp;&lt;br&gt;google: &quot;whats my ip address&quot;&lt;br&gt;&lt;/span&gt;" style="rounded=0;whiteSpace=wrap;html=1;strokeColor=default;" parent="1" vertex="1">
                    <mxGeometry x="-360" y="30" width="340" height="60" as="geometry"/>
                </mxCell>
                <mxCell id="5xW48g5ljJwNTgrKDnSM-11" value="89.115.169.254" style="text;html=1;align=center;verticalAlign=middle;whiteSpace=wrap;rounded=0;strokeColor=default;" parent="1" vertex="1">
                    <mxGeometry x="-252" y="315.1" width="100" height="30" as="geometry"/>
                </mxCell>
                <mxCell id="5xW48g5ljJwNTgrKDnSM-12" value="&lt;span style=&quot;color: rgb(32 , 33 , 36) ; font-family: &amp;#34;roboto&amp;#34; , &amp;#34;arial&amp;#34; , sans-serif ; font-size: 13px ; text-align: left ; background-color: rgb(255 , 255 , 255)&quot;&gt;104.28.63.108&lt;/span&gt;" style="text;html=1;strokeColor=default;fillColor=none;align=center;verticalAlign=middle;whiteSpace=wrap;rounded=0;" parent="1" vertex="1">
                    <mxGeometry x="-247" y="125" width="90" height="30" as="geometry"/>
                </mxCell>
                <mxCell id="5xW48g5ljJwNTgrKDnSM-13" value="&lt;span style=&quot;font-size: 12px&quot;&gt;block-padrao&lt;/span&gt;" style="sketch=0;aspect=fixed;html=1;points=[];align=center;image;fontSize=12;image=img/lib/mscae/Network_Security_Groups_Classic.svg;strokeColor=default;" parent="1" vertex="1">
                    <mxGeometry x="63" y="230" width="37" height="50" as="geometry"/>
                </mxCell>
                <mxCell id="5xW48g5ljJwNTgrKDnSM-14" value="&lt;span style=&quot;font-size: 12px&quot;&gt;default&lt;/span&gt;" style="sketch=0;aspect=fixed;html=1;points=[];align=center;image;fontSize=12;image=img/lib/mscae/Network_Security_Groups_Classic.svg;strokeColor=default;" parent="1" vertex="1">
                    <mxGeometry x="61.5" y="150" width="37" height="50" as="geometry"/>
                </mxCell>
            </root>
        </mxGraphModel>
    </diagram>
</mxfile>